{
	"asset":{
		"generator":"Khronos glTF Blender I/O v3.6.27",
		"version":"2.0"
	},
	"scene":0,
	"scenes":[
		{
			"name":"dutch_ship_medium",
			"nodes":[
				0,
				1,
				2
			]
		}
	],
	"nodes":[
		{
			"mesh":0,
			"name":"dutch_ship_medium_rigging"
		},
		{
			"mesh":1,
			"name":"dutch_ship_medium_hull"
		},
		{
			"mesh":2,
			"name":"dutch_ship_medium_sails"
		}
	],
	"materials":[
		{
			"doubleSided":true,
			"name":"dutch_ship_medium_rigging",
			"normalTexture":{
				"index":0
			},
			"pbrMetallicRoughness":{
				"baseColorTexture":{
					"index":1
				},
				"metallicRoughnessTexture":{
					"index":2
				}
			}
		},
		{
			"doubleSided":true,
			"name":"dutch_ship_medium_hull",
			"normalTexture":{
				"index":3
			},
			"pbrMetallicRoughness":{
				"baseColorTexture":{
					"index":4
				},
				"metallicRoughnessTexture":{
					"index":5
				}
			}
		},
		{
			"alphaCutoff":0.5,
			"alphaMode":"MASK",
			"doubleSided":true,
			"name":"dutch_ship_medium_sails",
			"normalTexture":{
				"index":6
			},
			"pbrMetallicRoughness":{
				"baseColorTexture":{
					"index":7
				},
				"metallicFactor":0,
				"metallicRoughnessTexture":{
					"index":8
				}
			}
		}
	],
	"meshes":[
		{
			"name":"x-Boats-Dutch-medium-rigging-joined",
			"primitives":[
				{
					"attributes":{
						"POSITION":0,
						"NORMAL":1,
						"TEXCOORD_0":2
					},
					"indices":3,
					"material":0
				}
			]
		},
		{
			"name":"x-Boats-Dutch-medium-baseB-joined",
			"primitives":[
				{
					"attributes":{
						"POSITION":4,
						"NORMAL":5,
						"TEXCOORD_0":6
					},
					"indices":7,
					"material":1
				}
			]
		},
		{
			"name":"Plane.072",
			"primitives":[
				{
					"attributes":{
						"POSITION":8,
						"NORMAL":9,
						"TEXCOORD_0":10
					},
					"indices":11,
					"material":2
				}
			]
		}
	],
	"textures":[
		{
			"sampler":0,
			"source":0
		},
		{
			"sampler":0,
			"source":1
		},
		{
			"sampler":0,
			"source":2
		},
		{
			"sampler":0,
			"source":3
		},
		{
			"sampler":0,
			"source":4
		},
		{
			"sampler":0,
			"source":5
		},
		{
			"sampler":0,
			"source":6
		},
		{
			"sampler":0,
			"source":7
		},
		{
			"sampler":0,
			"source":8
		}
	],
	"images":[
		{
			"mimeType":"image/png",
			"name":"dutch_ship_medium_rigging_nor_gl",
			"uri":"dutch_ship_medium_rigging_nor_gl.png"
		},
		{
			"mimeType":"image/png",
			"name":"dutch_ship_medium_rigging_diff",
			"uri":"dutch_ship_medium_rigging_diff.png"
		},
		{
			"mimeType":"image/png",
			"name":"dutch_ship_medium_rigging_metal-dutch_ship_medium_rigging_rough",
			"uri":"dutch_ship_medium_rigging_metal-dutch_ship_medium_rigging_rough.png"
		},
		{
			"mimeType":"image/png",
			"name":"dutch_ship_medium_hull_nor_gl",
			"uri":"dutch_ship_medium_hull_nor_gl.png"
		},
		{
			"mimeType":"image/png",
			"name":"dutch_ship_medium_hull_diff",
			"uri":"dutch_ship_medium_hull_diff.png"
		},
		{
			"mimeType":"image/png",
			"name":"dutch_ship_medium_hull_metal-dutch_ship_medium_hull_rough",
			"uri":"dutch_ship_medium_hull_metal-dutch_ship_medium_hull_rough.png"
		},
		{
			"mimeType":"image/png",
			"name":"dutch_ship_medium_sails_nor_gl",
			"uri":"dutch_ship_medium_sails_nor_gl.png"
		},
		{
			"mimeType":"image/png",
			"name":"dutch_ship_medium_sails_diff-dutch_ship_medium_sails_alpha",
			"uri":"dutch_ship_medium_sails_diff-dutch_ship_medium_sails_alpha.png"
		},
		{
			"mimeType":"image/png",
			"name":"dutch_ship_medium_sails_rough",
			"uri":"dutch_ship_medium_sails_rough.png"
		}
	],
	"accessors":[
		{
			"bufferView":0,
			"componentType":5126,
			"count":35903,
			"max":[
				3.4880359172821045,
				22.657127380371094,
				13.74468994140625
			],
			"min":[
				-3.320786237716675,
				1.1995306015014648,
				-9.983352661132812
			],
			"type":"VEC3"
		},
		{
			"bufferView":1,
			"componentType":5126,
			"count":35903,
			"type":"VEC3"
		},
		{
			"bufferView":2,
			"componentType":5126,
			"count":35903,
			"type":"VEC2"
		},
		{
			"bufferView":3,
			"componentType":5123,
			"count":101148,
			"type":"SCALAR"
		},
		{
			"bufferView":4,
			"componentType":5126,
			"count":24573,
			"max":[
				2.602752923965454,
				5.971731662750244,
				11.63282585144043
			],
			"min":[
				-2.599379539489746,
				-1.9999947547912598,
				-10.325664520263672
			],
			"type":"VEC3"
		},
		{
			"bufferView":5,
			"componentType":5126,
			"count":24573,
			"type":"VEC3"
		},
		{
			"bufferView":6,
			"componentType":5126,
			"count":24573,
			"type":"VEC2"
		},
		{
			"bufferView":7,
			"componentType":5123,
			"count":83694,
			"type":"SCALAR"
		},
		{
			"bufferView":8,
			"componentType":5126,
			"count":4020,
			"max":[
				3.2490220069885254,
				16.878726959228516,
				8.375848770141602
			],
			"min":[
				-2.797043800354004,
				4.7319488525390625,
				-1.5351203680038452
			],
			"type":"VEC3"
		},
		{
			"bufferView":9,
			"componentType":5126,
			"count":4020,
			"type":"VEC3"
		},
		{
			"bufferView":10,
			"componentType":5126,
			"count":4020,
			"type":"VEC2"
		},
		{
			"bufferView":11,
			"componentType":5123,
			"count":22644,
			"type":"SCALAR"
		}
	],
	"bufferViews":[
		{
			"buffer":0,
			"byteLength":430836,
			"byteOffset":0,
			"target":34962
		},
		{
			"buffer":0,
			"byteLength":430836,
			"byteOffset":430836,
			"target":34962
		},
		{
			"buffer":0,
			"byteLength":287224,
			"byteOffset":861672,
			"target":34962
		},
		{
			"buffer":0,
			"byteLength":202296,
			"byteOffset":1148896,
			"target":34963
		},
		{
			"buffer":0,
			"byteLength":294876,
			"byteOffset":1351192,
			"target":34962
		},
		{
			"buffer":0,
			"byteLength":294876,
			"byteOffset":1646068,
			"target":34962
		},
		{
			"buffer":0,
			"byteLength":196584,
			"byteOffset":1940944,
			"target":34962
		},
		{
			"buffer":0,
			"byteLength":167388,
			"byteOffset":2137528,
			"target":34963
		},
		{
			"buffer":0,
			"byteLength":48240,
			"byteOffset":2304916,
			"target":34962
		},
		{
			"buffer":0,
			"byteLength":48240,
			"byteOffset":2353156,
			"target":34962
		},
		{
			"buffer":0,
			"byteLength":32160,
			"byteOffset":2401396,
			"target":34962
		},
		{
			"buffer":0,
			"byteLength":45288,
			"byteOffset":2433556,
			"target":34963
		}
	],
	"samplers":[
		{
			"magFilter":9729,
			"minFilter":9987
		}
	],
	"buffers":[
		{
			"byteLength":2478844,
			"uri":"dutch_ship_medium_1k.bin"
		}
	]
}
