{
	"asset":{
		"generator":"Khronos glTF Blender I/O v5.0.21",
		"version":"2.0"
	},
	"scene":0,
	"scenes":[
		{
			"name":"Scene",
			"nodes":[
				0,
				1
			]
		}
	],
	"nodes":[
		{
			"mesh":0,
			"name":"Plane",
			"scale":[
				2,
				2,
				2
			]
		},
		{
			"mesh":1,
			"name":"Torus"
		}
	],
	"materials":[
		{
			"doubleSided":true,
			"name":"metal_plate.001",
			"normalTexture":{
				"index":0
			},
			"occlusionTexture":{
				"index":1
			},
			"pbrMetallicRoughness":{
				"baseColorTexture":{
					"index":2
				},
				"metallicRoughnessTexture":{
					"index":1
				}
			}
		}
	],
	"meshes":[
		{
			"name":"Plane",
			"primitives":[
				{
					"attributes":{
						"POSITION":0,
						"NORMAL":1,
						"TEXCOORD_0":2,
						"TANGENT":3
					},
					"indices":4,
					"material":0
				}
			]
		},
		{
			"name":"Torus",
			"primitives":[
				{
					"attributes":{
						"POSITION":5,
						"NORMAL":6,
						"TEXCOORD_0":7,
						"TANGENT":8
					},
					"indices":9,
					"material":0
				}
			]
		}
	],
	"textures":[
		{
			"sampler":0,
			"source":0
		},
		{
			"sampler":0,
			"source":1
		},
		{
			"sampler":0,
			"source":2
		}
	],
	"images":[
		{
			"mimeType":"image/png",
			"name":"metal_plate_Nor_4k",
			"uri":"metal_plate_Nor_4k.png"
		},
		{
			"mimeType":"image/png",
			"name":"metal_plate_ao_1k-metal_plate_rough_4k-metal_plate_metal_8k",
			"uri":"metal_plate_ao_1k-metal_plate_rough_4k-metal_plate_metal_8k.png"
		},
		{
			"mimeType":"image/jpeg",
			"name":"metal_plate_diff_4k",
			"uri":"metal_plate_diff_4k.jpg"
		}
	],
	"accessors":[
		{
			"bufferView":0,
			"componentType":5126,
			"count":4,
			"max":[
				0.24999995529651642,
				0,
				0.24999995529651642
			],
			"min":[
				-0.24999995529651642,
				0,
				-0.24999995529651642
			],
			"type":"VEC3"
		},
		{
			"bufferView":1,
			"componentType":5126,
			"count":4,
			"type":"VEC3"
		},
		{
			"bufferView":2,
			"componentType":5126,
			"count":4,
			"type":"VEC2"
		},
		{
			"bufferView":3,
			"componentType":5126,
			"count":4,
			"type":"VEC4"
		},
		{
			"bufferView":4,
			"componentType":5123,
			"count":6,
			"type":"SCALAR"
		},
		{
			"bufferView":5,
			"componentType":5126,
			"count":19074,
			"max":[
				1.25,
				0.25,
				1.25
			],
			"min":[
				-1.25,
				-0.25,
				-1.25
			],
			"type":"VEC3"
		},
		{
			"bufferView":6,
			"componentType":5126,
			"count":19074,
			"type":"VEC3"
		},
		{
			"bufferView":7,
			"componentType":5126,
			"count":19074,
			"type":"VEC2"
		},
		{
			"bufferView":8,
			"componentType":5126,
			"count":19074,
			"type":"VEC4"
		},
		{
			"bufferView":9,
			"componentType":5123,
			"count":27648,
			"type":"SCALAR"
		}
	],
	"bufferViews":[
		{
			"buffer":0,
			"byteLength":48,
			"byteOffset":0,
			"target":34962
		},
		{
			"buffer":0,
			"byteLength":48,
			"byteOffset":48,
			"target":34962
		},
		{
			"buffer":0,
			"byteLength":32,
			"byteOffset":96,
			"target":34962
		},
		{
			"buffer":0,
			"byteLength":64,
			"byteOffset":128,
			"target":34962
		},
		{
			"buffer":0,
			"byteLength":12,
			"byteOffset":192,
			"target":34963
		},
		{
			"buffer":0,
			"byteLength":228888,
			"byteOffset":204,
			"target":34962
		},
		{
			"buffer":0,
			"byteLength":228888,
			"byteOffset":229092,
			"target":34962
		},
		{
			"buffer":0,
			"byteLength":152592,
			"byteOffset":457980,
			"target":34962
		},
		{
			"buffer":0,
			"byteLength":305184,
			"byteOffset":610572,
			"target":34962
		},
		{
			"buffer":0,
			"byteLength":55296,
			"byteOffset":915756,
			"target":34963
		}
	],
	"samplers":[
		{
			"magFilter":9729,
			"minFilter":9987
		}
	],
	"buffers":[
		{
			"byteLength":971052,
			"uri":"metal_plate_1k.bin"
		}
	]
}
